<svg width="250" height="50" viewBox="0 0 250 50" fill="none" xmlns="http://www.w3.org/2000/svg">
  <g id="CommitT_Dark">
    <path fill-rule="evenodd" clip-rule="evenodd" d="M23.1819 14.8066C20.675 12.2996 17.065 10.999 13.3401 11.0001C6.01257 11.0001 0 17.0126 0 24.3402C0 31.6677 6.01257 37.6803 13.3401 37.6803C17.065 37.6814 20.675 36.3808 23.1819 33.8738L24.8188 35.5108C21.6033 38.7262 17.6534 40.3404 13.3401 40.3404C4.54221 40.3404 -2.6226e-07 33.1983 -2.6226e-07 24.3402C-2.6226e-07 15.482 4.54221 8.3401 13.3401 8.3401C17.6534 8.3412 21.6033 9.95541 24.8188 13.1708L23.1819 14.8066ZM33.874 14.8066L32.237 13.1708C35.4525 9.95541 39.9024 8.3412 44.2157 8.3401C53.0136 8.3401 57.5558 15.482 57.5558 24.3402C57.5558 33.1983 53.0136 40.3404 44.2157 40.3404C39.9024 40.3404 35.4525 38.7262 32.237 35.5108L33.874 33.8738C36.381 36.3808 39.991 37.6814 43.7159 37.6803C51.0435 37.6803 57.056 31.6677 57.056 24.3402C57.056 17.0126 51.0435 11.0001 43.7159 11.0001C39.991 10.999 36.381 12.2996 33.874 14.8066Z" fill="#2D83FF"/>
    <path d="M41.7428 17.5847L39.7397 19.5878C37.3197 22.0078 37.3197 25.9916 39.7397 28.4116L41.7428 30.4147C38.3815 33.776 32.8902 33.776 29.529 30.4147L27.5259 28.4116C25.1059 25.9916 25.1059 22.0078 27.5259 19.5878L29.529 17.5847C32.8902 14.2235 38.3815 14.2235 41.7428 17.5847Z" fill="#2D83FF"/>
    
    <text x="65" y="33" font-family="Arial, sans-serif" font-size="30" font-weight="bold" fill="#2D83FF">
      CommitT
    </text>
  </g>
</svg>